<svg width="197" height="16" viewBox="0 0 197 16" fill="none" xmlns="http://www.w3.org/2000/svg">
<path d="M3.72 7.18H5.56C6.16 7.18 6.64667 7.02 7.02 6.7C7.39333 6.36667 7.58 5.92667 7.58 5.38C7.58 4.82 7.39333 4.38 7.02 4.06C6.66 3.72667 6.17333 3.56 5.56 3.56H3.72V7.18ZM5.88 9.9H3.7V15H0.54V0.819999H5.88C7.32 0.819999 8.48667 1.24667 9.38 2.1C10.2867 2.95333 10.74 4.04 10.74 5.36C10.74 6.70667 10.2867 7.8 9.38 8.64C8.48667 9.48 7.32 9.9 5.88 9.9ZM19.528 15L16.988 9.72H15.868V15H12.708V0.819999H18.328C19.7013 0.819999 20.808 1.24 21.648 2.08C22.5013 2.92 22.928 3.98 22.928 5.26C22.928 6.22 22.6813 7.05333 22.188 7.76C21.6946 8.45333 21.008 8.95333 20.128 9.26L23.008 15H19.528ZM15.868 7H17.728C18.368 7 18.8613 6.84667 19.208 6.54C19.5546 6.22 19.728 5.8 19.728 5.28C19.728 4.74667 19.5546 4.32667 19.208 4.02C18.8613 3.71333 18.368 3.56 17.728 3.56H15.868V7ZM34.2666 15H25.2666V0.819999H34.2466V3.8H28.4266V6.5H33.7066V9.28H28.4266V12H34.2666V15ZM40.0867 12.02H41.9267C43.0867 12.02 44.0334 11.6733 44.7667 10.98C45.5134 10.2867 45.8867 9.26667 45.8867 7.92C45.8867 6.56 45.5134 5.53333 44.7667 4.84C44.0334 4.14667 43.0867 3.8 41.9267 3.8H40.0867V12.02ZM42.0467 15H36.9267V0.819999H42.0667C44.2134 0.819999 45.9334 1.46 47.2267 2.74C48.5334 4.02 49.1867 5.74667 49.1867 7.92C49.1867 10.0933 48.5334 11.82 47.2267 13.1C45.9334 14.3667 44.2067 15 42.0467 15ZM54.6384 15H51.4384V0.819999H54.6384V15ZM64.248 15.3C62.168 15.3 60.4213 14.62 59.008 13.26C57.5946 11.8867 56.888 10.1133 56.888 7.94C56.888 5.78 57.6013 4.00667 59.028 2.62C60.4546 1.22 62.1813 0.519999 64.208 0.519999C65.2213 0.519999 66.1346 0.673333 66.948 0.979999C67.7746 1.27333 68.4413 1.66667 68.948 2.16C69.4546 2.65333 69.8613 3.16 70.168 3.68C70.4746 4.2 70.688 4.74 70.808 5.3L67.828 6.24C67.7613 5.96 67.6546 5.68667 67.508 5.42C67.3613 5.14 67.1546 4.86 66.888 4.58C66.6213 4.28667 66.2546 4.05333 65.788 3.88C65.3213 3.69333 64.7946 3.6 64.208 3.6C63.1413 3.6 62.2013 3.98 61.388 4.74C60.5746 5.48667 60.168 6.55333 60.168 7.94C60.168 9.22 60.568 10.24 61.368 11C62.168 11.76 63.128 12.14 64.248 12.14C65.3413 12.14 66.188 11.8667 66.788 11.32C67.388 10.7733 67.7813 10.16 67.968 9.48L70.988 10.34C70.8546 10.8867 70.6346 11.4267 70.328 11.96C70.0346 12.4933 69.628 13.02 69.108 13.54C68.6013 14.06 67.9213 14.4867 67.068 14.82C66.228 15.14 65.288 15.3 64.248 15.3ZM83.7019 3.84H79.3219V15H76.1619V3.84H71.8019V0.819999H83.7019V3.84ZM88.8181 15H85.6181V0.819999H88.8181V15ZM95.5677 4.72C94.7543 5.45333 94.3477 6.51333 94.3477 7.9C94.3477 9.28667 94.7543 10.3467 95.5677 11.08C96.3943 11.8133 97.3543 12.18 98.4477 12.18C99.541 12.18 100.494 11.8133 101.308 11.08C102.121 10.3467 102.528 9.28667 102.528 7.9C102.528 6.51333 102.121 5.45333 101.308 4.72C100.494 3.97333 99.541 3.6 98.4477 3.6C97.3543 3.6 96.3943 3.97333 95.5677 4.72ZM91.0677 7.92C91.0677 5.72 91.781 3.94 93.2077 2.58C94.6477 1.20667 96.3943 0.519999 98.4477 0.519999C100.501 0.519999 102.241 1.20667 103.668 2.58C105.094 3.95333 105.808 5.73333 105.808 7.92C105.808 10.1067 105.094 11.8867 103.668 13.26C102.241 14.62 100.501 15.3 98.4477 15.3C96.3943 15.3 94.6477 14.62 93.2077 13.26C91.781 11.8867 91.0677 10.1067 91.0677 7.92ZM120.38 15H117.04L111.2 5.68V15H108.06V0.819999H111.9L117.22 9.44V0.819999H120.38V15ZM133.191 4.3L130.351 5.1C130.284 4.66 130.064 4.25333 129.691 3.88C129.317 3.50667 128.751 3.32 127.991 3.32C127.417 3.32 126.951 3.47333 126.591 3.78C126.231 4.07333 126.051 4.42667 126.051 4.84C126.051 5.57333 126.517 6.02667 127.451 6.2L129.351 6.56C130.657 6.8 131.664 7.31333 132.371 8.1C133.091 8.87333 133.451 9.78 133.451 10.82C133.451 12.0067 132.977 13.0533 132.031 13.96C131.084 14.8533 129.811 15.3 128.211 15.3C126.424 15.3 125.037 14.84 124.051 13.92C123.077 12.9867 122.531 11.9333 122.411 10.76L125.311 10.06C125.377 10.7667 125.651 11.3533 126.131 11.82C126.624 12.2733 127.331 12.5 128.251 12.5C128.864 12.5 129.351 12.3667 129.711 12.1C130.071 11.82 130.251 11.46 130.251 11.02C130.251 10.66 130.117 10.36 129.851 10.12C129.584 9.86667 129.211 9.69333 128.731 9.6L126.791 9.24C125.591 9.01333 124.644 8.52667 123.951 7.78C123.271 7.03333 122.931 6.13333 122.931 5.08C122.931 3.77333 123.431 2.68667 124.431 1.82C125.431 0.953333 126.624 0.519999 128.011 0.519999C128.851 0.519999 129.597 0.639999 130.251 0.879999C130.917 1.10667 131.444 1.41333 131.831 1.8C132.217 2.18667 132.517 2.58667 132.731 3C132.957 3.41333 133.111 3.84667 133.191 4.3ZM146.339 3.84H141.959V15H138.799V3.84H134.439V0.819999H146.339V3.84ZM155.075 15L152.535 9.72H151.415V15H148.255V0.819999H153.875C155.248 0.819999 156.355 1.24 157.195 2.08C158.048 2.92 158.475 3.98 158.475 5.26C158.475 6.22 158.228 7.05333 157.735 7.76C157.242 8.45333 156.555 8.95333 155.675 9.26L158.555 15H155.075ZM151.415 7H153.275C153.915 7 154.408 6.84667 154.755 6.54C155.102 6.22 155.275 5.8 155.275 5.28C155.275 4.74667 155.102 4.32667 154.755 4.02C154.408 3.71333 153.915 3.56 153.275 3.56H151.415V7ZM164.013 15H160.813V0.819999H164.013V15ZM175.663 15L171.843 9.42L170.243 11.2V15H167.083V0.819999H170.243V6.78L175.423 0.819999H179.583L174.063 6.96L179.603 15H175.663ZM190.341 15H181.341V0.819999H190.321V3.8H184.501V6.5H189.781V9.28H184.501V12H190.341V15ZM193.281 14.58C192.881 14.1667 192.681 13.68 192.681 13.12C192.681 12.56 192.881 12.08 193.281 11.68C193.681 11.28 194.161 11.08 194.721 11.08C195.281 11.08 195.761 11.28 196.161 11.68C196.574 12.08 196.781 12.56 196.781 13.12C196.781 13.6667 196.574 14.1467 196.161 14.56C195.761 14.9733 195.281 15.18 194.721 15.18C194.161 15.18 193.681 14.98 193.281 14.58Z" fill="white"/>
</svg>
